<svg width="374" height="374" viewBox="0 0 374 374" fill="none" xmlns="http://www.w3.org/2000/svg">
<path d="M285.099 274.922C291.614 270.085 301.294 270.062 307.831 274.867C310.59 276.895 312.878 279.917 312.996 283.338C313.115 286.76 310.387 290.333 306.965 290.235C304.513 290.166 302.437 288.366 301.032 286.356C299.626 284.347 298.658 282.043 297.117 280.135C294.288 276.631 289.532 274.792 285.082 275.48" fill="#FFEA7C"/>
<path d="M123.515 295.331C121.001 299.853 120.246 305.141 121.39 310.187C122.349 314.418 124.148 319.743 127.514 324.426C134.428 334.046 151.563 338.254 163.287 337.653C175.011 337.052 199.773 337.709 226.115 323.223C245.989 312.294 259.182 299.263 254.072 278.176C248.961 257.089 224.301 250.776 177.11 260.095C143.814 266.67 129.222 285.068 123.515 295.331Z" fill="#E49D67"/>
<path opacity="0.2" d="M253.979 278.252C253.469 276.148 252.756 274.197 251.853 272.388C252.848 278.355 248.992 284.468 243.983 289.139C235.654 296.905 225.688 304.32 215.683 309.759C205.677 315.198 194.821 318.911 183.844 321.943C172.354 325.118 159.384 324.758 147.61 322.904C136.037 321.082 125.589 317.055 120.965 306.436C121.017 307.702 121.183 308.969 121.467 310.222C122.425 314.448 124.222 319.766 127.584 324.443C134.489 334.05 151.602 338.253 163.311 337.653C175.02 337.053 199.751 337.709 226.059 323.242C245.907 312.327 259.083 299.312 253.979 278.252Z" fill="black"/>
<path d="M248.215 266.835C248.215 266.835 248.325 266.927 248.53 267.12C248.743 267.326 249.042 267.615 249.432 267.991C250.105 268.845 251.153 270.176 251.608 272.251C252.063 274.297 251.917 276.982 250.793 279.75C249.715 282.533 247.821 285.422 245.22 288.12C242.558 290.757 239.467 293.437 236.059 296.213C232.64 298.972 228.868 301.778 224.742 304.498C220.619 307.22 216.134 309.854 211.29 312.197C206.448 314.543 201.267 316.612 195.869 318.446C193.169 319.364 190.479 320.204 187.815 320.986C185.151 321.756 182.521 322.538 179.873 323.053C174.587 324.103 169.38 324.495 164.438 324.463C159.492 324.448 154.801 324.041 150.446 323.456C146.093 322.871 142.051 322.1 138.484 320.959C134.922 319.819 131.808 318.392 129.361 316.69C126.899 315.009 125.08 313.159 123.802 311.502C122.558 309.817 121.765 308.39 121.304 307.393C121.086 306.898 120.918 306.518 120.799 306.247C120.687 305.989 120.639 305.853 120.639 305.853C120.639 305.853 120.711 305.979 120.834 306.232C120.96 306.499 121.139 306.873 121.371 307.36C121.852 308.345 122.663 309.753 123.916 311.414C125.203 313.047 127.023 314.867 129.476 316.519C131.915 318.192 135.014 319.592 138.561 320.71C142.115 321.829 146.141 322.582 150.487 323.153C154.832 323.724 159.51 324.118 164.439 324.124C169.364 324.147 174.546 323.748 179.801 322.7C182.43 322.186 185.047 321.406 187.712 320.634C190.372 319.853 193.057 319.014 195.751 318.097C201.137 316.267 206.305 314.206 211.134 311.872C215.963 309.541 220.438 306.923 224.556 304.215C228.677 301.51 232.448 298.719 235.868 295.976C239.274 293.219 242.38 290.546 245.034 287.939C247.626 285.276 249.518 282.421 250.602 279.676C251.732 276.945 251.895 274.304 251.47 272.284C251.044 270.234 250.027 268.906 249.377 268.042C249.001 267.657 248.712 267.361 248.507 267.149C248.309 266.946 248.215 266.835 248.215 266.835Z" fill="#263238"/>
<path d="M130.144 314.486C130.137 314.497 130.051 314.45 129.894 314.35C129.739 314.246 129.5 314.105 129.22 313.888C128.648 313.467 127.857 312.8 127.003 311.854C126.151 310.908 125.244 309.67 124.516 308.142C123.776 306.626 123.237 304.811 123.085 302.861C122.952 300.908 123.23 299.035 123.748 297.428C124.26 295.815 124.986 294.461 125.71 293.414C126.434 292.363 127.132 291.6 127.648 291.112C127.898 290.86 128.118 290.691 128.259 290.569C128.402 290.45 128.482 290.392 128.49 290.402C128.553 290.461 127.303 291.451 125.927 293.558C124.555 295.624 123.177 299 123.452 302.835C123.738 306.667 125.569 309.812 127.198 311.683C128.84 313.589 130.199 314.421 130.144 314.486Z" fill="white"/>
<path d="M137.661 318.153C137.627 318.249 136.618 317.981 135.407 317.554C134.196 317.126 133.242 316.702 133.276 316.606C133.31 316.51 134.319 316.778 135.53 317.206C136.74 317.632 137.694 318.057 137.661 318.153Z" fill="white"/>
<path d="M77.4981 176.843C73.7938 175.864 62.9912 174.317 60.8963 179.563C59.8956 182.068 59.16 184.406 61.9579 186.987C65.6112 190.357 74.1559 193.494 76.6647 194.312C79.5874 195.266 85.624 196.926 89.1568 195.452C91.1922 194.602 92.4629 191.955 92.4154 189.903C92.2963 184.834 85.5935 178.983 77.4981 176.843Z" fill="#AD3030"/>
<path d="M77.5301 177.155C75.7882 176.686 62.8177 173.711 61.1884 180.259C59.7583 186.007 72.5969 190.046 77.2034 191.549C81.8099 193.053 90.9563 195.001 91.9449 190.255C93.0221 185.079 84.4448 179.018 77.5301 177.155Z" fill="#F75757"/>
<path d="M74.9078 184.634C74.91 184.621 75.0177 184.752 74.939 184.988C74.8837 185.244 74.5195 185.431 74.1184 185.471C73.3133 185.606 72.0972 185.528 71.0242 184.788C70.9618 184.73 70.8966 184.651 70.8881 184.543C70.8775 184.438 70.9406 184.334 71.0157 184.283C71.1674 184.178 71.3275 184.167 71.4671 184.134C71.7549 184.074 72.0348 184.021 72.3055 183.986C72.8463 183.911 73.3459 183.937 73.7505 184.017C74.158 184.095 74.4684 184.245 74.6555 184.382C74.8405 184.521 74.9078 184.634 74.9078 184.634C74.8972 184.642 74.8122 184.55 74.6215 184.43C74.4309 184.311 74.1283 184.182 73.7307 184.12C73.3331 184.055 72.8505 184.04 72.3225 184.122C72.0582 184.159 71.7825 184.214 71.4962 184.275C71.353 184.307 71.2021 184.328 71.1029 184.401C71.0029 184.47 71.015 184.587 71.1234 184.679C72.1227 185.365 73.3211 185.479 74.1028 185.367C74.5053 185.335 74.8164 185.19 74.8852 184.967C74.973 184.759 74.8951 184.636 74.9078 184.634Z" fill="#AD3030"/>
<path d="M76.8721 185.574C76.8529 185.567 77.0152 185.493 77.152 185.679C77.2675 185.874 77.2201 186.166 77.2172 186.513C77.1945 186.856 77.118 187.321 76.7488 187.662C76.3725 188.024 75.7198 187.965 75.2683 187.658C74.7829 187.372 74.5717 186.681 74.9033 186.264C75.0536 186.062 75.257 185.945 75.4384 185.847C75.6227 185.752 75.792 185.666 75.9579 185.599C76.2867 185.459 76.5943 185.445 76.7885 185.499C76.9848 185.55 77.067 185.635 77.062 185.639C77.0705 185.66 76.6396 185.38 75.999 185.695C75.7049 185.854 75.2797 186.008 75.0146 186.344C74.7474 186.692 74.9161 187.276 75.3512 187.536C75.7686 187.816 76.3384 187.866 76.6595 187.561C76.9897 187.268 77.0804 186.84 77.1137 186.506C77.1322 186.166 77.1867 185.866 77.1038 185.71C77.0053 185.545 76.8657 185.583 76.8721 185.574Z" fill="#AD3030"/>
<path d="M81.0845 187.412C81.0845 187.412 81.171 187.499 81.1986 187.708C81.2121 187.811 81.2106 187.941 81.166 188.085C81.1206 188.222 81.0264 188.4 80.8216 188.461C80.429 188.507 80.0002 188.356 79.5799 188.132C79.1597 187.922 78.6629 187.63 78.4035 187.101C78.2838 186.846 78.215 186.527 78.3773 186.262C78.5594 185.988 78.9017 186.001 79.1271 186.05C79.6048 186.158 79.9988 186.353 80.3035 186.555C80.93 186.947 81.1199 187.407 81.0845 187.412C81.0732 187.417 81.0306 187.312 80.9009 187.163C80.772 187.014 80.5487 186.828 80.2468 186.641C79.9456 186.457 79.5544 186.277 79.1009 186.182C78.884 186.139 78.6168 186.147 78.4985 186.339C78.3801 186.529 78.4248 186.806 78.536 187.036C78.7678 187.513 79.2284 187.797 79.6409 188.011C80.0484 188.242 80.4672 188.382 80.7946 188.359C81.105 188.254 81.1483 187.882 81.1405 187.711C81.1334 187.517 81.0689 187.417 81.0845 187.412Z" fill="#AD3030"/>
<path d="M73.4508 182.988C73.4324 182.981 73.6053 183.076 73.5182 183.324C73.3927 183.55 73.0058 183.628 72.6195 183.533C72.2326 183.445 71.7748 183.339 71.2794 183.158C70.7932 182.964 70.2412 182.737 69.8365 182.223C69.7422 182.088 69.7295 181.851 69.8755 181.724C70.0151 181.599 70.1845 181.589 70.3312 181.586C70.6253 181.6 70.8946 181.637 71.1547 181.689C71.6734 181.792 72.1185 181.976 72.465 182.173C72.8109 182.372 73.0596 182.58 73.2198 182.733C73.3821 182.885 73.4572 182.984 73.4508 182.988C73.4289 183.012 73.1036 182.637 72.4154 182.263C72.071 182.083 71.6352 181.915 71.1284 181.822C70.8776 181.774 70.6033 181.74 70.3312 181.73C70.2008 181.73 70.0583 181.752 69.9768 181.83C69.8939 181.908 69.8925 182.035 69.9641 182.149C70.3064 182.586 70.8627 182.845 71.3276 183.031C71.8088 183.214 72.2645 183.331 72.6422 183.431C73.01 183.536 73.3544 183.469 73.4678 183.295C73.5571 183.111 73.4232 182.99 73.4508 182.988Z" fill="#AD3030"/>
<path d="M75.3412 182.215C75.3412 182.215 75.4093 182.329 75.3561 182.547C75.3285 182.651 75.2491 182.786 75.0967 182.852C74.9486 182.92 74.7537 182.918 74.568 182.859C74.2059 182.728 73.7927 182.563 73.3548 182.305C72.9274 182.046 72.4767 181.649 72.2825 181.072C72.2698 181.027 72.257 180.984 72.245 180.942L72.2442 180.939L72.2435 180.933C72.24 180.9 72.2372 180.87 72.2343 180.841L72.2329 180.83L72.235 180.82C72.3038 180.493 72.6326 180.322 72.9083 180.334C73.1925 180.34 73.4306 180.465 73.6354 180.585C74.0401 180.832 74.398 181.062 74.6736 181.294C74.9493 181.524 75.1421 181.745 75.2434 181.921C75.3448 182.098 75.3483 182.215 75.3412 182.215C75.3292 182.219 75.3072 182.11 75.1967 181.951C75.0861 181.793 74.887 181.587 74.6099 181.373C74.3335 181.159 73.972 180.938 73.5681 180.701C73.3682 180.587 73.1443 180.479 72.9076 180.478C72.6773 180.468 72.4257 180.618 72.3803 180.848L72.381 180.827C72.3839 180.856 72.3874 180.886 72.3909 180.918L72.3895 180.909C72.4002 180.947 72.4122 180.986 72.4243 181.027C72.6007 181.554 73.0188 181.935 73.4278 182.19C73.8423 182.445 74.2612 182.626 74.6006 182.762C74.9479 182.901 75.2548 182.734 75.3022 182.531C75.3667 182.337 75.3256 182.215 75.3412 182.215Z" fill="#AD3030"/>
<path d="M79.1971 182.12C79.1971 182.12 79.2708 182.217 79.2921 182.429C79.3155 182.627 79.263 182.997 78.9179 183.212C78.5792 183.423 78.1235 183.445 77.6359 183.474C77.39 183.478 77.1079 183.446 76.8677 183.284C76.6317 183.124 76.4595 182.864 76.3971 182.572C76.2433 181.88 76.7741 181.279 77.2978 181.129C77.8428 180.967 78.3439 181.148 78.6437 181.362L78.6401 181.36C78.9073 181.523 79.037 181.741 79.1114 181.883C79.1851 182.031 79.2042 182.117 79.1971 182.12C79.1674 182.148 79.0873 181.748 78.5948 181.443L78.5912 181.441C78.3006 181.252 77.8272 181.1 77.3389 181.257C76.8684 181.4 76.4042 181.945 76.5417 182.542C76.5955 182.798 76.7472 183.027 76.9485 183.165C77.1504 183.304 77.4006 183.339 77.6352 183.339C78.1079 183.32 78.5622 183.302 78.8626 183.124C79.173 182.947 79.2382 182.623 79.2347 182.432C79.2319 182.231 79.1837 182.124 79.1971 182.12Z" fill="#AD3030"/>
<path d="M82.677 184.723C82.6834 184.719 82.6883 184.862 82.5182 185.015C82.356 185.176 82.0044 185.237 81.6324 185.154C81.2093 185.071 80.7763 184.988 80.3284 184.901C80.086 184.847 79.8203 184.82 79.5559 184.694C79.3008 184.581 79.0372 184.265 79.1711 183.921C79.2646 183.712 79.4624 183.614 79.6339 183.548C79.8096 183.485 79.9875 183.444 80.1626 183.422C80.5134 183.378 80.8514 183.407 81.1519 183.47C81.4467 183.528 81.7302 183.593 81.9577 183.716C82.1859 183.835 82.3531 183.989 82.4793 184.123L82.4261 184.181L82.4254 184.18L82.4771 184.121C82.801 184.439 82.6862 184.747 82.677 184.723C82.6593 184.733 82.7365 184.453 82.4233 184.178L82.475 184.119L82.4757 184.12L82.4226 184.177C82.2929 184.054 82.1271 183.915 81.9095 183.811C81.6926 183.704 81.4247 183.648 81.1264 183.596C80.8344 183.541 80.5126 183.519 80.1803 183.564C79.8692 183.619 79.4517 183.694 79.3065 183.978C79.2122 184.207 79.3958 184.465 79.6197 184.564C79.8479 184.677 80.1122 184.711 80.3553 184.767C80.8004 184.864 81.2313 184.959 81.6515 185.051C82.0151 185.143 82.3205 185.102 82.4821 184.969C82.6472 184.846 82.6642 184.716 82.677 184.723Z" fill="#AD3030"/>
<path d="M83.2065 186.408C83.2129 186.403 83.2908 186.501 83.4489 186.67C83.5112 186.76 83.653 186.858 83.6282 187.069C83.5559 187.269 83.3107 187.323 83.1058 187.301C82.2823 187.169 81.1818 186.821 80.0875 186.183C79.9529 186.103 79.8019 186.009 79.719 185.846C79.6318 185.696 79.6524 185.459 79.8111 185.349C80.1293 185.154 80.4362 185.288 80.6956 185.31C81.2328 185.395 81.7189 185.502 82.1052 185.659C82.4928 185.814 82.7735 186.008 82.9514 186.156C83.1299 186.303 83.2065 186.408 83.2065 186.408C83.1838 186.437 82.833 186.042 82.0676 185.757C81.687 185.617 81.2101 185.523 80.6743 185.446C80.4135 185.415 80.1038 185.324 79.899 185.464C79.8055 185.532 79.7892 185.666 79.8508 185.781C79.9075 185.896 80.0308 185.979 80.1626 186.056C81.2349 186.684 82.3277 187.044 83.1165 187.198C83.3071 187.227 83.5006 187.171 83.5495 187.046C83.5785 186.921 83.4637 186.793 83.4049 186.707C83.2611 186.527 83.1959 186.414 83.2065 186.408Z" fill="#AD3030"/>
<path d="M66.3385 177.411C66.3335 177.516 65.875 177.57 65.3541 177.746C64.8304 177.915 64.4307 178.144 64.3633 178.062C64.296 177.99 64.6397 177.591 65.2386 177.395C65.836 177.197 66.3498 177.313 66.3385 177.411Z" fill="white"/>
<path d="M64.0175 183.586C63.9991 183.622 63.7035 183.53 63.3414 183.197C62.9793 182.871 62.5959 182.274 62.4555 181.533C62.318 180.792 62.4591 180.096 62.6781 179.661C62.8956 179.22 63.1373 179.027 63.1678 179.054C63.2153 179.09 63.0579 179.334 62.9204 179.758C62.7801 180.18 62.6965 180.799 62.8184 181.465C62.9452 182.13 63.2479 182.676 63.532 183.019C63.8134 183.364 64.0494 183.534 64.0175 183.586Z" fill="white"/>
<path d="M247.903 115.624C242.935 118.771 229.922 129.314 233.641 137.146C235.417 140.886 237.28 144.153 243.104 143.698C250.708 143.103 263.154 136.758 266.693 134.79C270.816 132.497 278.983 127.434 281.01 121.92C282.178 118.743 280.524 114.551 278.164 112.464C272.337 107.308 258.758 108.747 247.903 115.624Z" fill="#AD3030"/>
<path d="M248.287 115.914C245.942 117.385 229.06 128.878 234.73 137.544C239.707 145.151 257.648 134.916 264.147 131.301C270.647 127.686 282.383 119.425 278.071 113.36C273.37 106.747 257.6 110.076 248.287 115.914Z" fill="#F75757"/>
<path d="M253.968 126.668C253.956 126.658 254.208 126.677 254.385 127.008C254.472 127.164 254.522 127.401 254.452 127.652C254.39 127.903 254.24 128.155 254.063 128.414C253.375 129.452 252.015 130.73 250.086 131.161C249.96 131.171 249.813 131.16 249.695 131.067C249.578 130.977 249.531 130.817 249.55 130.687C249.586 130.422 249.738 130.231 249.847 130.038C250.08 129.653 250.31 129.282 250.552 128.943C251.028 128.258 251.573 127.723 252.081 127.35C252.589 126.971 253.076 126.776 253.422 126.706C253.77 126.637 253.968 126.668 253.968 126.668C253.967 126.684 253.773 126.677 253.437 126.762C253.102 126.849 252.635 127.053 252.145 127.435C251.653 127.812 251.128 128.342 250.664 129.022C250.429 129.36 250.202 129.728 249.972 130.114C249.86 130.308 249.721 130.499 249.697 130.703C249.663 130.912 249.851 131.048 250.075 131.014C251.914 130.601 253.289 129.361 253.978 128.355C254.159 128.103 254.308 127.864 254.373 127.631C254.446 127.399 254.408 127.187 254.334 127.034C254.183 126.715 253.957 126.679 253.968 126.668Z" fill="#AD3030"/>
<path d="M257.072 125.436C257.05 125.451 257.139 125.203 257.479 125.246C257.639 125.271 257.799 125.392 257.951 125.54C258.107 125.685 258.285 125.85 258.469 126.048C258.827 126.432 259.26 126.999 259.256 127.754C259.258 128.124 259.09 128.514 258.802 128.793C258.518 129.076 258.144 129.276 257.735 129.378C257.326 129.479 256.883 129.453 256.523 129.261C256.163 129.078 255.893 128.737 255.829 128.365C255.759 127.996 255.836 127.649 255.914 127.344C255.997 127.039 256.076 126.757 256.171 126.502C256.352 125.988 256.65 125.631 256.908 125.466C257.165 125.296 257.342 125.292 257.342 125.292C257.348 125.307 257.178 125.336 256.941 125.513C256.703 125.687 256.433 126.033 256.269 126.537C256.183 126.786 256.11 127.071 256.033 127.374C255.961 127.675 255.896 128.008 255.963 128.339C256.023 128.67 256.262 128.967 256.589 129.133C256.915 129.304 257.318 129.329 257.7 129.234C258.462 129.054 259.129 128.452 259.12 127.75C259.133 127.056 258.736 126.504 258.391 126.118C258.024 125.744 257.743 125.373 257.467 125.302C257.17 125.246 257.071 125.453 257.072 125.436Z" fill="#AD3030"/>
<path d="M263.538 122.617C263.538 122.617 263.723 122.621 263.98 122.81C264.107 122.902 264.249 123.041 264.361 123.238C264.465 123.43 264.56 123.715 264.42 123.995C264.07 124.468 263.457 124.793 262.767 125.028C262.092 125.279 261.253 125.528 260.402 125.272C259.997 125.144 259.579 124.89 259.456 124.454C259.342 123.991 259.696 123.63 259.983 123.428C260.596 123.006 261.224 122.763 261.764 122.629C262.305 122.497 262.76 122.459 263.072 122.492C263.385 122.525 263.538 122.617 263.538 122.617C263.535 122.63 263.373 122.563 263.068 122.549C262.764 122.533 262.319 122.587 261.791 122.729C261.265 122.873 260.652 123.124 260.064 123.537C259.786 123.737 259.5 124.058 259.596 124.418C259.693 124.772 260.065 125.014 260.446 125.131C261.24 125.372 262.048 125.144 262.72 124.901C263.407 124.681 264.006 124.355 264.329 123.946C264.451 123.722 264.381 123.46 264.289 123.277C264.191 123.089 264.063 122.951 263.946 122.856C263.71 122.661 263.53 122.634 263.538 122.617Z" fill="#AD3030"/>
<path d="M250.596 126.592C250.596 126.592 250.644 126.586 250.732 126.61C250.814 126.633 250.965 126.691 251.028 126.87C251.144 127.236 250.833 127.742 250.324 128.071C249.822 128.412 249.223 128.815 248.504 129.18C248.145 129.361 247.755 129.531 247.332 129.655C246.908 129.763 246.465 129.903 245.971 129.822C245.729 129.786 245.473 129.571 245.48 129.295C245.485 129.028 245.642 128.829 245.789 128.665C246.108 128.352 246.431 128.086 246.758 127.849C247.411 127.373 248.078 127.064 248.657 126.875C249.828 126.514 250.596 126.592 250.596 126.592C250.6 126.63 249.835 126.594 248.691 126.974C248.125 127.171 247.476 127.485 246.839 127.958C246.521 128.192 246.197 128.464 245.896 128.762C245.757 128.914 245.626 129.1 245.628 129.293C245.627 129.489 245.793 129.64 246.003 129.678C246.427 129.752 246.884 129.621 247.292 129.516C247.705 129.397 248.088 129.234 248.444 129.059C249.155 128.706 249.76 128.312 250.265 127.986C250.769 127.677 251.058 127.208 250.973 126.888C250.929 126.733 250.799 126.67 250.723 126.639C250.642 126.606 250.595 126.599 250.596 126.592Z" fill="#AD3030"/>
<path d="M251.696 123.656C251.696 123.656 251.889 123.707 252.071 123.992C252.156 124.131 252.22 124.354 252.136 124.587C252.059 124.819 251.858 125.028 251.6 125.174C251.078 125.439 250.457 125.729 249.715 125.949C248.982 126.157 248.073 126.247 247.235 125.87C247.17 125.842 247.11 125.807 247.053 125.778L247.049 125.776L247.044 125.772C247.004 125.742 246.967 125.714 246.931 125.688L246.922 125.681L246.917 125.673C246.635 125.276 246.776 124.746 247.068 124.457C247.362 124.152 247.745 124.015 248.091 123.909C248.79 123.709 249.421 123.544 249.966 123.473C250.51 123.4 250.958 123.41 251.259 123.473C251.564 123.538 251.696 123.656 251.696 123.656C251.69 123.668 251.546 123.574 251.25 123.528C250.955 123.483 250.515 123.488 249.982 123.573C249.448 123.657 248.822 123.832 248.131 124.037C247.793 124.144 247.431 124.283 247.172 124.556C246.913 124.814 246.809 125.271 247.035 125.585L247.02 125.57C247.056 125.597 247.093 125.625 247.133 125.655L247.125 125.65C247.179 125.678 247.236 125.71 247.296 125.736C248.086 126.091 248.96 126.016 249.678 125.819C250.402 125.613 251.038 125.329 251.549 125.084C251.796 124.951 251.982 124.765 252.058 124.56C252.14 124.356 252.092 124.157 252.02 124.021C251.866 123.744 251.683 123.669 251.696 123.656Z" fill="#AD3030"/>
<path d="M255.614 119.219C255.614 119.219 255.796 119.247 256.051 119.446C256.293 119.629 256.643 120.068 256.525 120.668C256.41 121.256 255.959 121.791 255.483 122.365C255.232 122.642 254.907 122.92 254.485 123.017C254.07 123.114 253.607 123.038 253.223 122.808C252.78 122.556 252.496 122.1 252.403 121.644C252.305 121.185 252.372 120.719 252.552 120.338C252.928 119.568 253.646 119.193 254.192 119.077L254.188 119.078C254.643 118.946 255.02 119.022 255.258 119.082C255.497 119.148 255.614 119.219 255.614 119.219C255.61 119.229 255.485 119.181 255.245 119.131C255.009 119.086 254.64 119.03 254.216 119.167L254.215 119.168L254.213 119.168C253.69 119.295 253.014 119.669 252.672 120.395C252.334 121.085 252.462 122.2 253.298 122.682C253.651 122.894 254.078 122.963 254.453 122.878C254.831 122.792 255.137 122.54 255.383 122.274C255.856 121.718 256.309 121.186 256.423 120.649C256.546 120.1 256.239 119.684 256.015 119.492C255.779 119.285 255.606 119.234 255.614 119.219Z" fill="#AD3030"/>
<path d="M262.174 118.016C262.174 118.016 262.211 118.046 262.251 118.124C262.289 118.202 262.33 118.33 262.323 118.497C262.329 118.843 262.036 119.29 261.553 119.618C261.049 119.984 260.497 120.384 259.903 120.815C259.589 121.031 259.279 121.3 258.871 121.461C258.486 121.627 257.88 121.588 257.649 121.108C257.518 120.803 257.608 120.487 257.713 120.23C257.824 119.97 257.961 119.729 258.118 119.511C258.43 119.073 258.811 118.724 259.193 118.452C259.566 118.179 259.93 117.93 260.3 117.801C260.668 117.668 261.012 117.639 261.294 117.633L261.3 117.711H261.298L261.29 117.633C261.616 117.63 261.869 117.702 262.004 117.818C262.143 117.925 262.174 118.016 262.174 118.016C262.175 118.043 261.941 117.652 261.294 117.712L261.286 117.634H261.289L261.295 117.712C261.019 117.727 260.686 117.765 260.337 117.901C259.985 118.033 259.639 118.278 259.268 118.556C258.898 118.827 258.533 119.169 258.234 119.593C258.084 119.804 257.953 120.037 257.848 120.286C257.747 120.529 257.679 120.812 257.783 121.047C257.957 121.419 258.465 121.478 258.819 121.326C259.193 121.181 259.508 120.919 259.824 120.704C260.424 120.283 260.982 119.891 261.491 119.533C261.975 119.217 262.251 118.816 262.265 118.492C262.293 118.173 262.157 118.021 262.174 118.016Z" fill="#AD3030"/>
<path d="M264.622 119.177C264.622 119.177 264.816 119.191 265.169 119.194C265.334 119.218 265.594 119.172 265.787 119.404C265.927 119.676 265.742 119.999 265.504 120.202C264.498 120.98 262.958 121.852 261.103 122.415C260.875 122.484 260.618 122.552 260.363 122.479C260.114 122.422 259.887 122.171 259.926 121.898C260.029 121.369 260.492 121.155 260.79 120.888C261.444 120.372 262.067 119.935 262.643 119.661C263.217 119.386 263.725 119.268 264.074 119.218C264.424 119.165 264.622 119.177 264.622 119.177C264.632 119.223 263.818 119.195 262.689 119.756C262.13 120.036 261.522 120.474 260.874 120.995C260.57 121.258 260.135 121.503 260.07 121.912C260.045 122.109 260.198 122.286 260.403 122.338C260.606 122.397 260.836 122.343 261.061 122.274C262.892 121.72 264.436 120.863 265.435 120.125C265.668 119.937 265.817 119.652 265.716 119.447C265.588 119.27 265.325 119.276 265.165 119.252C264.813 119.231 264.619 119.192 264.622 119.177Z" fill="#AD3030"/>
<path d="M236.896 128.776C236.973 128.851 236.512 129.403 236.157 130.192C235.792 130.977 235.676 131.686 235.569 131.678C235.473 131.68 235.426 130.896 235.822 130.038C236.211 129.179 236.835 128.701 236.896 128.776Z" fill="white"/>
<path d="M241.424 137.831C241.438 137.864 241.022 138.074 240.282 138.117C239.548 138.166 238.501 137.968 237.538 137.364C236.577 136.756 235.946 135.897 235.673 135.214C235.393 134.528 235.402 134.061 235.438 134.059C235.502 134.047 235.586 134.486 235.909 135.102C236.226 135.718 236.84 136.484 237.735 137.051C238.633 137.613 239.588 137.837 240.281 137.856C240.976 137.882 241.408 137.768 241.424 137.831Z" fill="white"/>
<path d="M158.218 186.85C169.879 191.64 176.586 190.686 185.964 193.073C196.772 195.824 208.604 193.579 218.856 189.188C223.777 187.081 229.227 184.108 234.137 186.241C235.191 186.699 236.138 187.373 237.178 187.859C238.457 188.458 239.851 188.762 241.227 189.081C244.14 189.756 247.272 190.682 249.008 193.117C250.742 195.552 249.86 199.865 246.901 200.291C248.32 200.643 248.743 202.535 248.338 203.94C247.932 205.346 247.003 206.575 246.731 208.013C246.332 210.119 247.405 212.197 248.443 214.073C253.228 213.758 257.657 218.551 256.967 223.296C256.817 224.327 256.467 225.336 256.481 226.378C256.496 227.572 256.987 228.707 257.142 229.891C257.56 233.102 255.07 236.412 251.869 236.9C252.049 240.527 249.694 244.142 246.302 245.443C247.742 245.821 248.787 247.336 248.63 248.816C248.473 250.296 247.132 251.557 245.645 251.625C248.385 256.279 245.168 263.224 239.847 264.144C239.838 268.142 236.971 271.487 234.269 274.432C232.937 275.884 231.451 277.421 229.505 277.729C226.319 278.232 223.561 275.26 220.345 275.024C218.944 274.922 217.552 275.351 216.148 275.315C214.743 275.279 213.159 274.535 212.922 273.151C212.565 274.861 210.521 275.768 208.794 275.499C207.066 275.23 205.607 274.119 204.227 273.046C207.125 277.307 206.135 283.741 202.09 286.933C198.046 290.127 191.558 289.597 188.086 285.79C187.612 287.494 185.621 288.401 183.86 288.246C182.098 288.091 180.519 287.142 179.011 286.217C178.08 288.509 176.773 291.118 174.337 291.544C173.574 291.677 172.758 291.574 172.053 291.892C170.863 292.429 170.483 293.886 169.987 295.094C168.871 297.813 166.367 300.006 163.457 300.42C160.547 300.833 157.374 299.262 156.222 296.557C155.887 298.579 153.995 300.229 151.947 300.288C149.898 300.346 147.916 298.807 147.465 296.807C145.434 298.465 142.34 297.24 140.351 295.531C136.666 292.363 134.363 287.641 134.136 282.787C133.537 284.586 131.037 285.098 129.341 284.251C127.645 283.402 126.6 281.671 125.699 280.004C125.626 282.868 123.203 285.485 120.353 285.78C117.513 286.074 114.789 284.256 113.186 281.895C111.583 279.534 110.882 276.692 110.211 273.917C109.052 269.127 107.886 264.191 108.631 259.32C109.065 256.484 110.133 253.789 111.193 251.123C112.761 247.177 114.336 243.217 116.432 239.525C121.171 231.173 128.351 224.539 134.781 217.407C141.211 210.275 149.962 200.44 151.304 190.932C151.716 188.022 151.163 185.24 151.477 184.735C152.219 183.543 158.218 186.85 158.218 186.85Z" fill="#65AB44"/>
<path d="M151.478 184.732C151.48 184.727 151.541 184.742 151.659 184.778C151.797 184.822 151.967 184.878 152.178 184.946C152.632 185.099 153.302 185.326 154.156 185.639C155.869 186.255 158.331 187.194 161.35 188.41C167.4 190.807 175.625 194.449 185.026 197.628C189.708 199.261 194.266 200.544 198.52 201.126C202.767 201.729 206.652 201.779 209.885 201.526C213.124 201.298 215.708 200.768 217.477 200.364C218.362 200.16 219.044 199.978 219.504 199.849C219.719 199.793 219.892 199.749 220.032 199.713C220.152 199.684 220.214 199.672 220.216 199.679C220.218 199.685 220.159 199.708 220.044 199.749C219.907 199.794 219.736 199.85 219.526 199.92C219.071 200.073 218.394 200.278 217.511 200.504C215.748 200.951 213.16 201.523 209.906 201.786C206.659 202.074 202.749 202.051 198.472 201.462C194.188 200.896 189.595 199.613 184.905 197.978C175.488 194.792 167.269 191.108 161.251 188.651C158.247 187.406 155.802 186.431 154.106 185.773C153.279 185.453 152.626 185.2 152.153 185.017C151.947 184.934 151.781 184.867 151.647 184.813C151.533 184.766 151.476 184.738 151.478 184.732Z" fill="white"/>
<path d="M214.58 206.496C214.58 206.502 214.522 206.503 214.41 206.5C214.276 206.492 214.114 206.483 213.915 206.473C213.449 206.444 212.814 206.405 212.013 206.356C210.36 206.263 207.967 206.205 205.005 206.116C202.05 206.003 198.499 205.88 194.644 205.068C190.764 204.3 186.798 202.461 182.779 200.42C174.673 196.453 167.338 192.863 161.993 190.247C159.363 188.941 157.225 187.879 155.712 187.128C154.996 186.764 154.428 186.475 154.012 186.264C153.836 186.17 153.693 186.093 153.574 186.03C153.476 185.976 153.428 185.945 153.431 185.94C153.434 185.934 153.488 185.953 153.591 185.996C153.714 186.05 153.863 186.116 154.045 186.197C154.469 186.393 155.046 186.661 155.776 187C157.301 187.726 159.458 188.752 162.11 190.014C167.467 192.605 174.82 196.16 182.944 200.089C186.963 202.131 190.885 203.958 194.715 204.735C198.529 205.557 202.064 205.708 205.015 205.855C207.972 205.977 210.369 206.074 212.021 206.212C212.848 206.279 213.488 206.341 213.921 206.398C214.119 206.423 214.281 206.444 214.414 206.461C214.525 206.478 214.581 206.49 214.58 206.496Z" fill="white"/>
<path d="M225.009 240.84C225.006 240.846 224.929 240.824 224.779 240.776C224.611 240.719 224.392 240.644 224.116 240.552C223.537 240.345 222.672 240.065 221.59 239.623C219.411 238.778 216.291 237.446 212.627 235.423C210.792 234.419 208.829 233.233 206.778 231.875C204.74 230.497 202.609 228.953 200.469 227.198C196.194 223.688 191.884 219.336 187.942 214.32C185.934 211.845 184.006 209.402 181.938 207.235C179.881 205.057 177.72 203.126 175.601 201.366C171.345 197.859 167.253 195.025 163.793 192.694C160.323 190.373 157.467 188.568 155.497 187.312C154.529 186.693 153.769 186.208 153.23 185.865C152.986 185.705 152.793 185.578 152.645 185.481C152.514 185.393 152.448 185.345 152.452 185.34C152.456 185.334 152.527 185.371 152.665 185.449C152.818 185.538 153.017 185.654 153.269 185.801C153.816 186.13 154.588 186.596 155.573 187.189C157.566 188.407 160.445 190.18 163.937 192.475C167.42 194.781 171.534 197.598 175.816 201.103C177.949 202.863 180.125 204.797 182.2 206.987C184.286 209.166 186.222 211.614 188.228 214.088C192.164 219.095 196.436 223.423 200.685 226.935C202.81 228.69 204.925 230.237 206.948 231.621C208.984 232.984 210.931 234.18 212.752 235.195C216.387 237.241 219.484 238.606 221.642 239.49C222.714 239.952 223.569 240.253 224.14 240.481C224.41 240.589 224.625 240.674 224.79 240.74C224.937 240.8 225.011 240.834 225.009 240.84Z" fill="white"/>
<path d="M194.233 260.102C194.227 260.104 194.205 260.029 194.169 259.881C194.131 259.713 194.081 259.495 194.019 259.221C193.889 258.617 193.707 257.765 193.475 256.68C193.003 254.473 192.34 251.276 191.436 247.344C190.523 243.416 189.371 238.749 187.742 233.675C186.947 231.132 185.982 228.506 184.907 225.816C183.779 223.149 182.575 220.396 181.079 217.712C180.729 217.027 180.344 216.369 179.953 215.718C179.561 215.069 179.197 214.409 178.79 213.782C177.965 212.535 177.181 211.286 176.311 210.128C174.599 207.793 172.791 205.655 171.019 203.666C167.466 199.694 164.033 196.328 161.114 193.546C158.189 190.77 155.76 188.587 154.079 187.082C153.251 186.344 152.602 185.764 152.14 185.352C151.933 185.163 151.767 185.014 151.64 184.897C151.529 184.793 151.473 184.738 151.478 184.733C151.482 184.728 151.545 184.774 151.665 184.869C151.798 184.978 151.971 185.119 152.188 185.296C152.648 185.674 153.318 186.238 154.173 186.975C155.885 188.447 158.341 190.601 161.293 193.357C164.238 196.118 167.695 199.468 171.272 203.44C173.056 205.428 174.876 207.569 176.603 209.914C177.479 211.079 178.27 212.333 179.101 213.586C179.511 214.216 179.877 214.88 180.271 215.533C180.664 216.186 181.052 216.848 181.403 217.536C182.907 220.234 184.113 223 185.242 225.679C186.316 228.382 187.277 231.019 188.065 233.573C189.682 238.667 190.809 243.348 191.69 247.286C192.562 251.229 193.185 254.436 193.615 256.652C193.818 257.742 193.978 258.599 194.09 259.207C194.138 259.484 194.175 259.704 194.205 259.873C194.23 260.023 194.239 260.101 194.233 260.102Z" fill="white"/>
<path d="M158.321 276.418C158.314 276.418 158.309 276.337 158.306 276.179C158.304 276.001 158.302 275.768 158.3 275.475C158.306 274.856 158.285 273.943 158.343 272.769C158.409 270.42 158.651 267.023 159.123 262.848C159.574 258.671 160.272 253.717 160.766 248.192C161.003 245.431 161.187 242.524 161.197 239.51C161.207 236.495 160.973 233.381 160.585 230.207C159.804 223.855 158.491 217.885 157.265 212.474C156.013 207.066 154.821 202.208 153.913 198.106C152.999 194.006 152.353 190.666 151.981 188.346C151.78 187.188 151.675 186.281 151.585 185.669C151.548 185.378 151.519 185.147 151.496 184.971C151.478 184.813 151.472 184.732 151.478 184.731C151.485 184.73 151.503 184.81 151.534 184.965C151.565 185.14 151.607 185.369 151.659 185.657C151.772 186.266 151.9 187.168 152.122 188.321C152.538 190.631 153.222 193.958 154.167 198.048C155.145 202.139 156.307 207.001 157.596 212.397C158.842 217.808 160.168 223.785 160.952 230.161C161.341 233.345 161.574 236.48 161.559 239.51C161.545 242.539 161.352 245.454 161.104 248.222C160.591 253.758 159.866 258.707 159.382 262.877C158.878 267.044 158.597 270.43 158.487 272.775C158.406 273.946 158.404 274.858 158.375 275.475C158.362 275.768 158.352 276 158.344 276.178C158.334 276.337 158.326 276.418 158.321 276.418Z" fill="white"/>
<path d="M165.902 263.097C165.876 263.097 165.844 262.71 165.806 262.011C165.774 261.311 165.708 260.3 165.606 259.053C165.409 256.559 164.989 253.127 164.297 249.371C163.601 245.616 162.803 242.248 162.211 239.814C161.927 238.647 161.69 237.677 161.509 236.931C161.346 236.25 161.267 235.869 161.292 235.863C161.317 235.856 161.442 236.224 161.648 236.894C161.855 237.564 162.135 238.54 162.464 239.749C163.122 242.169 163.961 245.536 164.66 249.304C165.354 253.072 165.735 256.527 165.866 259.034C165.934 260.288 165.961 261.304 165.949 262.006C165.943 262.709 165.927 263.097 165.902 263.097Z" fill="white"/>
<path d="M137.863 260.618C137.852 260.612 137.934 260.413 138.1 260.039C138.284 259.638 138.533 259.096 138.845 258.413C139.18 257.713 139.568 256.845 140.004 255.833C140.449 254.823 140.956 253.675 141.471 252.386C142.552 249.83 143.704 246.731 144.941 243.277C146.138 239.808 147.374 235.967 148.547 231.898C149.703 227.822 150.686 223.908 151.516 220.332C152.309 216.749 152.989 213.513 153.463 210.777C153.721 209.413 153.921 208.174 154.097 207.085C154.281 205.997 154.429 205.06 154.536 204.29C154.65 203.547 154.74 202.958 154.807 202.522C154.873 202.118 154.914 201.907 154.926 201.908C154.939 201.91 154.922 202.124 154.881 202.531C154.831 202.97 154.764 203.562 154.679 204.309C154.594 205.082 154.466 206.024 154.301 207.116C154.144 208.208 153.962 209.453 153.72 210.821C153.278 213.566 152.624 216.813 151.847 220.406C151.035 223.991 150.06 227.915 148.902 231.998C147.727 236.074 146.479 239.92 145.262 243.389C144.005 246.843 142.826 249.938 141.712 252.486C141.18 253.771 140.656 254.914 140.192 255.916C139.738 256.923 139.331 257.782 138.975 258.474C138.636 259.144 138.367 259.677 138.168 260.071C137.979 260.436 137.875 260.623 137.863 260.618Z" fill="white"/>
<path d="M116.222 280.583C116.204 280.6 115.92 280.32 115.418 279.793C115.296 279.659 115.148 279.52 115.009 279.347C114.874 279.167 114.731 278.974 114.578 278.77C114.423 278.559 114.259 278.337 114.087 278.103C113.929 277.856 113.778 277.585 113.612 277.305C112.924 276.197 112.33 274.752 111.804 273.114C111.303 271.465 110.971 269.594 110.803 267.617C110.497 263.648 111.056 260.05 111.737 257.551C111.885 256.918 112.088 256.365 112.25 255.876C112.405 255.384 112.566 254.971 112.717 254.64C113.002 253.973 113.17 253.611 113.194 253.62C113.217 253.63 113.094 254.012 112.851 254.691C112.722 255.028 112.581 255.445 112.447 255.94C112.304 256.432 112.121 256.985 111.99 257.616C111.379 260.11 110.868 263.67 111.171 267.589C111.337 269.541 111.654 271.388 112.13 273.018C112.631 274.636 113.189 276.069 113.839 277.177C115.085 279.427 116.296 280.519 116.222 280.583Z" fill="white"/>
<path d="M128.99 282.059C128.917 282.121 128.098 281.225 127.455 279.887C126.804 278.552 126.61 277.353 126.704 277.335C126.809 277.308 127.156 278.432 127.787 279.726C128.41 281.023 129.076 281.994 128.99 282.059Z" fill="white"/>
<path d="M141.695 293.187C141.681 293.209 141.501 293.118 141.183 292.933C140.861 292.755 140.425 292.447 139.921 292.025C139.412 291.606 138.861 291.042 138.311 290.364C137.776 289.676 137.251 288.867 136.811 287.96C136.383 287.046 136.086 286.128 135.888 285.279C135.708 284.425 135.617 283.641 135.613 282.982C135.603 282.325 135.638 281.792 135.702 281.43C135.759 281.068 135.802 280.87 135.827 280.873C135.896 280.881 135.788 281.684 135.874 282.971C135.91 283.615 136.027 284.374 136.219 285.201C136.43 286.024 136.728 286.912 137.144 287.801C137.572 288.683 138.073 289.474 138.58 290.156C139.101 290.827 139.618 291.395 140.094 291.83C141.04 292.706 141.732 293.129 141.695 293.187Z" fill="white"/>
<path d="M161.313 298.082C161.297 298.176 159.981 297.688 159.049 296.318C158.1 294.958 158.113 293.555 158.206 293.573C158.317 293.554 158.465 294.844 159.353 296.108C160.217 297.386 161.37 297.985 161.313 298.082Z" fill="white"/>
<path d="M183.315 286.037C183.294 286.072 182.834 285.853 182.218 285.316C181.601 284.785 180.86 283.9 180.337 282.761C179.818 281.618 179.635 280.479 179.637 279.665C179.636 278.847 179.771 278.357 179.81 278.364C179.871 278.371 179.83 278.867 179.897 279.653C179.961 280.438 180.176 281.515 180.672 282.608C181.173 283.698 181.846 284.565 182.397 285.128C182.948 285.693 183.35 285.987 183.315 286.037Z" fill="white"/>
<path d="M192.295 286.585C192.278 286.604 192.125 286.497 191.861 286.282C191.592 286.074 191.239 285.726 190.843 285.262C190.442 284.802 190.03 284.198 189.641 283.488C189.268 282.771 188.928 281.944 188.689 281.04C188.462 280.132 188.362 279.243 188.344 278.435C188.343 277.625 188.413 276.898 188.543 276.301C188.666 275.704 188.808 275.229 188.943 274.917C189.072 274.602 189.154 274.434 189.177 274.443C189.242 274.466 188.976 275.168 188.799 276.346C188.705 276.934 188.665 277.643 188.683 278.428C188.719 279.211 188.826 280.07 189.046 280.949C189.277 281.825 189.597 282.629 189.943 283.332C190.303 284.028 190.681 284.63 191.047 285.1C191.77 286.047 192.34 286.534 192.295 286.585Z" fill="white"/>
<path opacity="0.3" d="M124.481 236.536C127.346 237.479 130.453 237.467 133.331 238.369C136.209 239.272 139.045 241.573 139.045 244.589C139.045 246.353 138.103 248.278 139.04 249.773C141.142 246.852 142.338 243.288 142.422 239.69C144.876 240.744 147.332 241.798 149.787 242.852C151.3 243.501 152.877 244.198 153.9 245.488C157.278 249.747 152.426 256.768 155.496 261.254C156.726 257.579 157.427 253.728 157.573 249.856C161.682 252.839 158.165 260.909 162.431 263.665C162.336 260.138 162.114 256.614 161.766 253.102C166.605 257.804 171.755 262.186 177.17 266.211C178.559 267.244 180.056 268.288 181.779 268.456C185.864 268.854 188.586 264.463 190.269 260.719C191.052 261.762 191.835 262.804 192.619 263.845C194.38 261.909 193.034 258.787 193.638 256.241C194.145 254.1 195.981 252.575 197.709 251.214C203.879 246.351 211.026 241.206 218.802 242.328C217.123 241.681 216.93 239.194 217.963 237.72C218.997 236.247 220.759 235.511 222.378 234.723C230.435 230.801 236.85 223.936 241.126 216.061C245.402 208.185 246.477 195.886 242.387 189.364L242.384 189.363C242.38 189.363 242.291 189.357 242.136 189.349V189.301C241.833 189.224 241.529 189.15 241.229 189.08C239.853 188.761 238.459 188.458 237.18 187.859C236.14 187.372 235.193 186.698 234.139 186.24C229.229 184.108 223.779 187.08 218.858 189.188C208.606 193.579 196.774 195.823 185.966 193.073C176.588 190.686 169.881 191.639 158.22 186.849C158.22 186.849 152.22 183.542 151.479 184.732C151.165 185.237 151.717 188.02 151.306 190.929C149.963 200.437 141.213 210.272 134.783 217.404C130.537 222.114 125.966 226.61 121.985 231.524C121.933 233.817 122.198 235.784 124.481 236.536Z" fill="black"/>
<path d="M85.9084 231.952C82.6045 226.467 76.9307 223.987 70.5376 223.63C68.751 223.531 66.8935 223.692 65.3167 224.537C63.7398 225.382 62.5017 227.024 62.5379 228.813C62.5754 230.688 63.9886 232.318 65.6696 233.147C70.7686 235.662 77.122 231.963 82.4854 233.85C83.3018 234.137 84.1558 234.556 84.9914 234.33C85.8255 234.103 86.2131 233.207 85.9084 231.952Z" fill="#FFEA7C"/>
<path d="M71.2012 232.744C71.2083 232.784 70.5655 232.956 69.4918 232.946C68.4415 232.931 66.8711 232.667 65.5735 231.584C64.9342 231.05 64.4509 230.385 64.1943 229.704C63.9343 229.023 63.8875 228.356 63.9484 227.815C64.0136 227.272 64.178 226.855 64.3269 226.594C64.4757 226.33 64.5969 226.213 64.6132 226.224C64.6762 226.254 64.2659 226.807 64.2085 227.837C64.1837 228.344 64.2546 228.959 64.5104 229.578C64.762 230.196 65.2141 230.803 65.8094 231.3C67.0164 232.309 68.4826 232.604 69.5046 232.685C70.5428 232.762 71.1955 232.684 71.2012 232.744Z" fill="white"/>
<path d="M74.6473 232.482C74.6445 232.584 74.3178 232.658 73.9181 232.647C73.5184 232.637 73.1959 232.546 73.1987 232.444C73.2016 232.342 73.5276 232.268 73.928 232.279C74.3284 232.289 74.6501 232.38 74.6473 232.482Z" fill="white"/>
<path d="M67.8504 211.036C67.2495 210.653 66.4749 210.496 65.6932 210.567C64.8236 210.476 63.9037 210.889 63.3708 211.598C62.7231 212.461 62.6182 213.66 62.9654 214.681C63.3127 215.702 64.0682 216.551 64.9611 217.156C65.9823 217.849 67.3487 218.242 68.4472 217.681C69.4868 217.15 69.9907 215.892 69.9517 214.725C69.9035 213.254 69.0914 211.829 67.8504 211.036Z" fill="#FFEA7C"/>
<path d="M65.4448 216.586C65.4257 216.627 65.1153 216.542 64.6978 216.24C64.2833 215.944 63.7773 215.401 63.4824 214.661C63.1869 213.92 63.182 213.178 63.279 212.678C63.3747 212.172 63.5413 211.896 63.5831 211.913C63.6915 211.929 63.2762 213.156 63.8254 214.523C64.3669 215.895 65.5121 216.501 65.4448 216.586Z" fill="white"/>
<path d="M254.62 167.449C259.196 159.851 267.054 156.417 275.91 155.923C278.384 155.785 280.958 156.008 283.142 157.179C285.326 158.349 287.041 160.624 286.991 163.102C286.939 165.698 284.982 167.957 282.653 169.106C275.591 172.589 266.79 167.464 259.362 170.078C258.23 170.476 257.048 171.058 255.891 170.743C254.734 170.428 254.197 169.188 254.62 167.449Z" fill="#FFEA7C"/>
<path d="M274.991 168.547C274.997 168.482 275.899 168.609 277.343 168.516C278.763 168.417 280.814 168.015 282.504 166.603C283.337 165.907 283.969 165.055 284.319 164.187C284.674 163.319 284.767 162.456 284.726 161.747C284.631 160.307 284.043 159.547 284.115 159.517C284.13 159.507 284.29 159.675 284.487 160.042C284.684 160.406 284.903 160.98 284.986 161.726C285.064 162.468 284.993 163.383 284.634 164.313C284.28 165.245 283.616 166.154 282.739 166.886C280.959 168.372 278.804 168.744 277.355 168.777C276.617 168.793 276.022 168.741 275.615 168.684C275.209 168.627 274.988 168.569 274.991 168.547Z" fill="white"/>
<path d="M270.218 168.183C270.215 168.08 270.662 167.986 271.216 167.971C271.77 167.956 272.221 168.027 272.224 168.129C272.227 168.231 271.779 168.326 271.225 168.341C270.672 168.355 270.22 168.284 270.218 168.183Z" fill="white"/>
<path d="M279.202 209.58C279.994 210.169 280.58 211.094 280.872 212.142C281.418 213.222 281.338 214.616 280.682 215.656C279.885 216.92 278.384 217.647 276.892 217.701C275.398 217.755 273.928 217.195 272.704 216.338C271.304 215.358 270.122 213.783 270.306 212.084C270.48 210.476 271.861 209.203 273.39 208.678C275.319 208.016 277.564 208.365 279.202 209.58Z" fill="#FFEA7C"/>
<path d="M273.203 215.43C273.242 215.386 273.573 215.654 274.172 215.955C274.766 216.257 275.656 216.566 276.67 216.581C277.683 216.597 278.582 216.316 279.186 216.031C279.794 215.749 280.134 215.491 280.17 215.537C280.199 215.568 279.914 215.905 279.306 216.263C278.706 216.621 277.754 216.967 276.664 216.951C275.574 216.934 274.633 216.559 274.045 216.183C273.448 215.805 273.173 215.461 273.203 215.43Z" fill="white"/>
<path d="M208.087 194.988C198.047 193.87 189.089 188.469 179.81 184.474C170.531 180.478 157.938 177.144 148.898 181.654C143.866 188.771 140.81 194.567 132.87 203.01C131.461 204.788 129.374 205.021 127.722 206.595L128.549 208.15C130.296 208.803 131.868 210.094 132.532 211.837C133.419 214.163 132.484 216.944 130.613 218.586C128.743 220.229 126.112 220.825 123.633 220.59C121.609 220.398 119.604 219.667 118.072 218.33C117.49 217.822 116.984 217.221 116.58 216.562C111.388 219.457 104.538 220.37 98.8674 221.768L99.406 223.205C117.849 234.201 142.392 233.123 158.818 246.952C166.836 253.702 172.909 263.933 183.152 266.155C192.744 253.148 204.502 241.744 217.796 232.555C222.88 229.04 228.263 225.781 232.318 221.116C240.747 211.418 241.957 197.582 242.674 184.753L242.135 183.316C231.807 189.594 220.082 196.323 208.087 194.988ZM190.372 245.585C188.183 247.509 185.103 248.205 182.202 247.931C179.832 247.706 177.486 246.85 175.692 245.285C173.899 243.719 172.709 241.408 172.732 239.029C172.753 236.785 173.88 234.579 175.685 233.247C176.703 232.497 178.487 231.895 180.235 231.628C181.942 231.367 183.688 231.626 185.286 232.279L187.956 233.371C190.001 234.134 191.841 235.646 192.618 237.686C193.656 240.408 192.561 243.662 190.372 245.585ZM201.152 219.043C199.974 220.078 198.315 220.454 196.752 220.306C195.476 220.185 194.212 219.724 193.246 218.881C192.28 218.038 191.639 216.793 191.651 215.511C191.663 214.303 192.27 213.115 193.243 212.397C193.79 211.993 194.751 211.669 195.692 211.525C196.612 211.385 197.552 211.524 198.412 211.876L199.85 212.464C200.952 212.875 201.943 213.689 202.361 214.788C202.921 216.254 202.331 218.007 201.152 219.043Z" fill="#FFCF54"/>
<g opacity="0.3">
<path d="M208.087 194.988C198.047 193.87 189.089 188.469 179.81 184.474C170.531 180.478 157.938 177.144 148.898 181.654C143.866 188.771 140.81 194.567 132.87 203.01C131.461 204.788 129.374 205.021 127.722 206.595L128.549 208.15C130.296 208.803 131.868 210.094 132.532 211.837C133.419 214.163 132.484 216.944 130.613 218.586C128.743 220.229 126.112 220.825 123.633 220.59C121.609 220.398 119.604 219.667 118.072 218.33C117.49 217.822 116.984 217.221 116.58 216.562C111.449 219.423 104.47 220.369 98.8674 221.768L99.406 223.205C117.849 234.201 142.392 233.123 158.818 246.952C166.836 253.702 172.909 263.933 183.152 266.155C192.744 253.148 204.502 241.744 217.796 232.555C222.88 229.04 228.263 225.781 232.318 221.116C240.747 211.418 241.957 197.582 242.674 184.753L242.135 183.316C231.79 189.614 220.11 196.326 208.087 194.988ZM190.372 245.585C188.183 247.509 185.103 248.205 182.202 247.931C179.832 247.706 177.486 246.85 175.692 245.285C173.899 243.719 172.709 241.408 172.732 239.029C172.753 236.785 173.88 234.579 175.685 233.247C176.703 232.497 178.487 231.895 180.235 231.628C181.942 231.367 183.688 231.626 185.286 232.279L187.956 233.371C190.001 234.134 191.841 235.646 192.618 237.686C193.656 240.408 192.561 243.662 190.372 245.585ZM201.152 219.043C199.974 220.078 198.315 220.454 196.752 220.306C195.476 220.185 194.212 219.724 193.246 218.881C192.28 218.038 191.639 216.793 191.651 215.511C191.663 214.303 192.27 213.115 193.243 212.397C193.79 211.993 194.751 211.669 195.692 211.525C196.612 211.385 197.552 211.524 198.412 211.876L199.85 212.464C200.952 212.875 201.943 213.689 202.361 214.788C202.921 216.254 202.331 218.007 201.152 219.043Z" fill="black"/>
</g>
<path d="M207.549 193.552C197.508 192.434 188.55 187.033 179.271 183.038C169.992 179.042 157.4 175.708 148.36 180.218C143.327 187.335 140.271 193.131 132.331 201.574C130.922 203.351 129.374 205.022 127.722 206.596L128.01 206.713C129.757 207.366 131.33 208.657 131.994 210.4C132.88 212.726 131.945 215.506 130.075 217.15C128.204 218.792 125.573 219.388 123.095 219.153C121.07 218.961 119.066 218.23 117.534 216.893C116.952 216.385 116.446 215.785 116.041 215.125C110.636 218.14 104.776 220.38 98.8674 221.769C117.31 232.765 141.853 231.687 158.279 245.516C166.297 252.266 172.37 262.497 182.614 264.718C192.205 251.713 203.964 240.308 217.257 231.119C222.341 227.604 227.725 224.345 231.779 219.68C240.208 209.982 241.419 196.146 242.135 183.316C231.696 189.727 219.724 194.907 207.549 193.552ZM189.834 244.149C187.645 246.073 184.564 246.769 181.663 246.494C179.293 246.27 176.948 245.414 175.154 243.849C173.36 242.283 172.17 239.972 172.193 237.593C172.214 235.349 173.342 233.143 175.147 231.811C176.164 231.061 177.948 230.459 179.697 230.192C181.403 229.931 183.149 230.19 184.747 230.843L187.417 231.935C189.462 232.698 191.302 234.21 192.08 236.25C193.118 238.972 192.023 242.226 189.834 244.149ZM200.614 217.606C199.434 218.642 197.775 219.017 196.213 218.869C194.937 218.748 193.673 218.287 192.707 217.444C191.741 216.601 191.101 215.357 191.113 214.075C191.124 212.866 191.732 211.678 192.704 210.961C193.252 210.556 194.213 210.232 195.154 210.088C196.073 209.948 197.013 210.087 197.874 210.439L199.312 211.027C200.413 211.438 201.405 212.253 201.823 213.351C202.382 214.817 201.793 216.571 200.614 217.606Z" fill="#FFCF54"/>
<path d="M163.527 244.97C163.517 244.979 163.37 244.837 163.099 244.56C162.82 244.293 162.452 243.855 161.909 243.36C160.854 242.342 159.227 240.965 157.023 239.544C154.819 238.129 152.035 236.684 148.801 235.43C145.576 234.148 141.925 233.021 138.068 231.921C130.362 229.723 123.388 227.734 118.299 226.282C115.8 225.551 113.767 224.957 112.319 224.534C111.641 224.327 111.101 224.163 110.698 224.04C110.329 223.923 110.136 223.857 110.14 223.844C110.143 223.831 110.342 223.875 110.718 223.969C111.125 224.075 111.671 224.217 112.357 224.395C113.812 224.791 115.857 225.348 118.369 226.031C123.466 227.456 130.451 229.409 138.168 231.566C142.029 232.666 145.691 233.807 148.926 235.114C152.17 236.392 154.962 237.872 157.164 239.325C159.366 240.784 160.979 242.202 162.008 243.257C162.538 243.77 162.89 244.225 163.153 244.51C163.408 244.804 163.537 244.962 163.527 244.97Z" fill="white"/>
<path d="M169.587 251.999C169.5 252.061 168.952 251.419 168.176 250.745C167.404 250.065 166.696 249.608 166.745 249.514C166.787 249.426 167.609 249.755 168.419 250.467C169.233 251.176 169.667 251.947 169.587 251.999Z" fill="white"/>
<path d="M170.976 233.163C171.089 233.209 169.961 235.219 169.747 237.978C169.496 240.735 170.271 242.906 170.152 242.933C170.112 242.948 169.865 242.43 169.643 241.534C169.421 240.64 169.262 239.357 169.379 237.947C169.5 236.538 169.872 235.3 170.241 234.456C170.609 233.61 170.94 233.141 170.976 233.163Z" fill="white"/>
<path d="M188.229 214.007C188.326 214.059 187.878 214.938 187.788 216.115C187.68 217.292 187.975 218.233 187.87 218.268C187.789 218.315 187.306 217.358 187.42 216.084C187.521 214.809 188.157 213.946 188.229 214.007Z" fill="white"/>
<path d="M227.913 171.744C228.564 168.325 225.266 154.881 221.214 152.911C211.725 148.297 193.413 158.084 175.584 160.533C154.641 163.411 135.756 171.515 126.677 176.971C122.757 179.326 110.766 179.905 108.336 182.634C108.336 182.634 108.357 189.612 110.899 196.524C110.899 196.524 113.08 207.039 124.202 209.697C140.09 213.495 159.328 211.949 172.855 208.846C188.405 205.279 209.629 195.909 217.359 189.667C225.09 183.426 227.012 176.473 227.913 171.744Z" fill="#743C35"/>
<path d="M223.962 157.571C219.785 144.906 197.822 143.29 172.379 146.785C151.437 149.662 132.552 157.767 123.472 163.222C114.393 168.678 109.25 175.111 108.337 182.635C108.337 182.635 109.875 193.291 120.997 195.949C136.885 199.747 156.72 198.806 170.248 195.704C185.797 192.137 206.424 182.161 214.155 175.919C221.885 169.677 225.092 160.997 223.962 157.571Z" fill="#A85F4C"/>
<path d="M171.292 151.039C171.756 151.25 168.265 159.928 163.494 170.42C158.721 180.916 154.478 189.25 154.014 189.039C153.551 188.827 157.042 180.152 161.813 169.656C166.584 159.164 170.828 150.828 171.292 151.039Z" fill="#774037"/>
<path d="M190.209 148.015C190.672 148.229 187.29 156.514 182.657 166.517C178.022 176.524 173.891 184.459 173.429 184.245C172.967 184.031 176.348 175.748 180.983 165.741C185.616 155.738 189.747 147.801 190.209 148.015Z" fill="#774037"/>
<path d="M207.612 150.013C208.077 150.194 205.927 156.777 202.307 164.491C198.698 172.214 195.017 178.078 194.581 177.837C194.125 177.589 197.055 171.373 200.636 163.709C204.229 156.053 207.128 149.821 207.612 150.013Z" fill="#774037"/>
<path d="M148.43 156.975C148.899 157.141 146.503 165.032 142.504 174.364C138.516 183.705 134.464 190.886 134.02 190.661C133.553 190.429 136.844 182.923 140.807 173.638C144.783 164.363 147.94 156.798 148.43 156.975Z" fill="#774037"/>
<path d="M130.265 165.604C130.72 165.855 128.83 170.115 126.489 175.333C124.135 180.547 122.2 184.786 121.71 184.612C121.238 184.447 122.417 179.868 124.805 174.575C127.184 169.279 129.829 165.359 130.265 165.604Z" fill="#774037"/>
<path d="M139.709 195.702C139.709 195.715 139.578 195.719 139.33 195.714C139.04 195.704 138.682 195.692 138.245 195.676C137.305 195.633 135.944 195.559 134.264 195.41C132.586 195.261 130.586 195.031 128.396 194.581C126.209 194.134 123.83 193.436 121.492 192.32C119.16 191.182 117.166 189.664 115.629 188.028C114.101 186.382 113.005 184.642 112.384 183.06C111.753 181.482 111.508 180.111 111.467 179.166C111.414 178.695 111.462 178.325 111.457 178.077C111.466 177.828 111.477 177.699 111.489 177.699C111.528 177.699 111.517 178.223 111.61 179.153C111.693 180.083 111.975 181.422 112.624 182.959C113.265 184.499 114.362 186.189 115.875 187.793C117.398 189.387 119.363 190.87 121.652 191.987C123.955 193.085 126.301 193.785 128.466 194.247C130.633 194.711 132.62 194.967 134.289 195.149C135.961 195.33 137.317 195.444 138.255 195.531C138.689 195.574 139.045 195.609 139.334 195.638C139.581 195.669 139.71 195.689 139.709 195.702Z" fill="white"/>
<path d="M150.823 193.818C150.844 193.918 149.465 194.283 147.745 194.634C146.025 194.986 144.614 195.189 144.594 195.089C144.573 194.989 145.951 194.623 147.672 194.273C149.392 193.922 150.803 193.718 150.823 193.818Z" fill="white"/>
<path d="M123.769 206.387C123.761 206.411 123.532 206.352 123.12 206.224C122.707 206.102 122.127 205.873 121.43 205.545C120.037 204.893 118.213 203.73 116.554 202.048C114.902 200.358 113.774 198.513 113.147 197.108C112.831 196.405 112.613 195.821 112.499 195.405C112.379 194.992 112.324 194.762 112.348 194.754C112.412 194.733 112.7 195.637 113.382 196.994C114.06 198.351 115.198 200.133 116.817 201.789C118.442 203.438 120.203 204.609 121.547 205.312C122.892 206.019 123.791 206.323 123.769 206.387Z" fill="white"/>
<path d="M126.569 101.395C126.569 101.395 113.319 98.5068 104.318 103.227C98.5919 106.231 95.6261 113.788 94.3122 121.686C92.1769 134.528 99.9788 154.071 133.389 167.596C169.183 182.086 186.225 172.441 192.12 168.681C197.268 165.398 205.268 156.12 204.787 140.762C204.705 138.134 200.098 138.364 198.39 135.447C189.03 119.465 154.716 99.8519 126.569 101.395Z" fill="#F74545"/>
<path opacity="0.3" d="M126.569 101.395C126.569 101.395 113.319 98.5068 104.318 103.227C98.5919 106.231 95.6261 113.788 94.3122 121.686C92.1769 134.528 99.9788 154.071 133.389 167.596C169.183 182.086 186.225 172.441 192.12 168.681C197.268 165.398 205.268 156.12 204.787 140.762C204.705 138.134 200.098 138.364 198.39 135.447C189.03 119.465 154.716 99.8519 126.569 101.395Z" fill="black"/>
<path d="M128.97 94.3635C128.97 94.3635 100.919 96.4386 97.1853 114.478C94.5468 127.226 102.38 147.04 135.79 160.565C171.584 175.056 192.51 162.062 195.504 159.733C198.498 157.404 211.126 146.065 200.791 128.417C191.431 112.434 157.117 92.8214 128.97 94.3635Z" fill="#F74545"/>
<path opacity="0.1" d="M128.97 94.3635C128.97 94.3635 100.919 96.4386 97.1853 114.478C94.5468 127.226 102.38 147.04 135.79 160.565C171.584 175.056 192.51 162.062 195.504 159.733C198.498 157.404 211.126 146.065 200.791 128.417C191.431 112.434 157.117 92.8214 128.97 94.3635Z" fill="white"/>
<g opacity="0.2">
<path d="M192.025 129.707C189.501 126.67 176.896 129.212 172.141 128.339C171.01 128.131 170.264 126.525 171.212 125.873C178.846 120.621 179.423 114.768 175.465 111.873C171.178 108.737 164.366 105.037 158.339 104.155C154.834 103.642 149.573 103.006 146.886 105.314C145.094 106.853 144.883 114.246 145.097 116.684C144.464 114.579 142.741 107.854 141.602 105.979C139.668 102.794 136.569 100.12 132.884 99.5696C129.014 98.9927 125.186 100.796 121.926 102.961C116.387 106.641 111.65 111.522 108.151 117.18C107.138 118.818 106.427 120.645 106.231 122.562C105.459 130.099 112.474 132.882 118.385 132.61C122.93 132.401 130.881 129.074 135.429 129.182C135.801 129.19 136.197 129.218 136.494 129.442C137.029 129.844 136.973 130.717 136.556 131.241C136.14 131.765 131.977 133.858 131.353 134.101C128.724 135.123 126.03 136.218 124.249 138.532C123.415 139.616 122.88 140.93 122.893 142.297C122.926 145.901 126.318 147.782 129.328 149.183C134.197 151.449 139.086 153.674 143.994 155.855C149.852 158.459 155.894 161.04 162.295 161.387C164.553 161.509 167.112 161.239 168.131 158.711C168.379 158.094 168.474 157.419 168.434 156.756C168.3 154.48 166.925 152.663 165.44 151.068C164.485 150.042 163.522 148.462 163.067 147.136C162.613 145.809 162.509 141.884 163.803 141.346C164.981 140.856 167.116 141.174 168.743 143.336C170.584 145.782 172.397 149.05 174.046 151.629C174.97 153.077 175.792 154.681 177.221 155.633C179.75 157.317 183.2 156.343 185.806 154.783C190.005 152.271 193.387 148.268 194.712 143.559C196.04 138.849 195.153 133.469 192.025 129.707Z" fill="white"/>
</g>
<path d="M134.065 140.901C133.517 140.748 132.925 140.702 132.382 140.872C131.838 141.041 131.352 141.447 131.177 141.989C131.002 142.531 131.194 143.195 131.682 143.489C132.161 143.778 132.774 143.67 133.31 143.51C133.88 143.34 134.434 143.12 134.966 142.854C135.207 142.734 135.401 142.65 135.649 142.44C135.964 142.161 136.004 141.778 135.636 141.565C135.126 141.31 134.614 141.054 134.065 140.901Z" fill="white"/>
<path d="M178.733 148.784C178.509 149.307 178.385 149.889 178.481 150.45C178.577 151.011 178.915 151.547 179.429 151.791C179.943 152.037 180.627 151.933 180.983 151.49C181.333 151.053 181.307 150.431 181.219 149.879C181.126 149.292 180.982 148.713 180.789 148.15C180.701 147.896 180.644 147.692 180.468 147.418C180.233 147.069 179.859 146.979 179.599 147.315C179.279 147.787 178.957 148.261 178.733 148.784Z" fill="white"/>
<path d="M137.462 147.103C137.072 147.476 136.743 147.935 136.603 148.456C136.463 148.976 136.533 149.562 136.861 149.959C137.19 150.355 137.794 150.51 138.262 150.253C138.722 150 138.944 149.452 139.088 148.942C139.24 148.399 139.347 147.846 139.408 147.29C139.436 147.038 139.468 146.841 139.429 146.541C139.371 146.154 139.098 145.942 138.752 146.14C138.303 146.434 137.852 146.73 137.462 147.103Z" fill="white"/>
<path d="M153.11 152.983C153.134 153.522 153.264 154.072 153.565 154.519C153.864 154.967 154.352 155.299 154.866 155.312C155.381 155.325 155.896 154.971 156.01 154.449C156.122 153.937 155.854 153.409 155.564 152.965C155.256 152.494 154.909 152.05 154.529 151.639C154.357 151.452 154.23 151.299 153.978 151.131C153.649 150.92 153.31 150.987 153.232 151.379C153.159 151.909 153.085 152.444 153.11 152.983Z" fill="white"/>
<path d="M158.732 150.906C159.144 151.253 159.636 151.531 160.169 151.615C160.701 151.698 161.276 151.566 161.635 151.197C161.993 150.828 162.083 150.21 161.777 149.772C161.477 149.342 160.908 149.181 160.385 149.093C159.829 148.999 159.268 148.952 158.708 148.952C158.454 148.952 158.256 148.94 157.961 149.01C157.583 149.11 157.402 149.404 157.636 149.728C157.976 150.141 158.319 150.558 158.732 150.906Z" fill="white"/>
<path d="M184.618 145.883C184.643 146.423 184.772 146.972 185.073 147.42C185.372 147.868 185.86 148.199 186.375 148.212C186.889 148.225 187.404 147.871 187.518 147.35C187.63 146.837 187.363 146.309 187.072 145.866C186.764 145.394 186.417 144.95 186.037 144.539C185.865 144.353 185.738 144.199 185.487 144.031C185.157 143.82 184.818 143.888 184.74 144.279C184.666 144.81 184.593 145.345 184.618 145.883Z" fill="white"/>
<path d="M188.301 141.591C188.713 141.939 189.205 142.216 189.738 142.3C190.27 142.384 190.845 142.251 191.203 141.882C191.562 141.513 191.651 140.895 191.346 140.457C191.045 140.027 190.476 139.866 189.953 139.778C189.398 139.684 188.836 139.637 188.276 139.637C188.023 139.637 187.824 139.625 187.529 139.695C187.152 139.795 186.97 140.089 187.204 140.413C187.545 140.827 187.888 141.244 188.301 141.591Z" fill="white"/>
<path d="M190.001 135.839C190.473 135.975 190.986 136.024 191.461 135.895C191.935 135.766 192.364 135.442 192.525 135.002C192.686 134.561 192.531 134.013 192.113 133.763C191.703 133.517 191.169 133.593 190.702 133.715C190.206 133.844 189.721 134.013 189.255 134.221C189.044 134.315 188.875 134.379 188.656 134.548C188.378 134.771 188.337 135.084 188.652 135.265C189.088 135.484 189.528 135.704 190.001 135.839Z" fill="white"/>
<path d="M173.731 117.174C174.167 117.065 174.593 116.868 174.91 116.549C175.226 116.231 175.416 115.778 175.341 115.357C175.267 114.935 174.893 114.574 174.449 114.567C174.012 114.56 173.626 114.865 173.312 115.175C172.978 115.505 172.673 115.861 172.401 116.238C172.277 116.409 172.173 116.538 172.077 116.771C171.96 117.075 172.071 117.34 172.402 117.34C172.847 117.311 173.295 117.283 173.731 117.174Z" fill="white"/>
<path d="M132.989 104.61C133.016 104.161 132.957 103.695 132.748 103.298C132.539 102.901 132.164 102.583 131.74 102.527C131.315 102.471 130.858 102.719 130.718 103.14C130.581 103.555 130.755 104.015 130.956 104.408C131.17 104.825 131.418 105.223 131.695 105.597C131.821 105.766 131.913 105.904 132.106 106.066C132.361 106.269 132.647 106.243 132.746 105.926C132.853 105.494 132.962 105.058 132.989 104.61Z" fill="white"/>
<path d="M117.184 111.947C116.974 111.55 116.682 111.182 116.297 110.951C115.913 110.72 115.428 110.642 115.036 110.814C114.644 110.987 114.382 111.436 114.481 111.869C114.579 112.295 114.966 112.598 115.342 112.829C115.741 113.075 116.16 113.286 116.591 113.461C116.786 113.541 116.936 113.612 117.185 113.649C117.508 113.691 117.74 113.52 117.66 113.198C117.528 112.773 117.394 112.344 117.184 111.947Z" fill="white"/>
<path d="M124.816 106.327C124.663 105.842 124.412 105.373 124.031 105.038C123.65 104.703 123.126 104.518 122.654 104.63C122.183 104.743 121.799 105.189 121.821 105.691C121.843 106.185 122.214 106.601 122.585 106.935C122.98 107.289 123.403 107.611 123.848 107.894C124.049 108.022 124.202 108.131 124.471 108.224C124.822 108.336 125.115 108.194 125.091 107.818C125.03 107.316 124.969 106.812 124.816 106.327Z" fill="white"/>
<path d="M111.358 120.406C110.867 120.274 110.336 120.233 109.848 120.375C109.361 120.517 108.923 120.859 108.765 121.318C108.606 121.776 108.777 122.339 109.212 122.59C109.64 122.836 110.19 122.748 110.672 122.613C111.183 122.471 111.681 122.286 112.158 122.063C112.374 121.962 112.548 121.892 112.771 121.714C113.054 121.479 113.091 121.155 112.762 120.973C112.307 120.756 111.848 120.537 111.358 120.406Z" fill="white"/>
<path d="M115.647 127.112C115.151 127.224 114.663 127.436 114.297 127.788C113.932 128.14 113.704 128.647 113.778 129.127C113.851 129.606 114.264 130.025 114.766 130.044C115.26 130.062 115.705 129.728 116.069 129.385C116.455 129.021 116.81 128.626 117.128 128.206C117.273 128.016 117.394 127.873 117.509 127.611C117.65 127.271 117.531 126.968 117.155 126.959C116.651 126.979 116.143 127 115.647 127.112Z" fill="white"/>
<path d="M169.249 113.253C169.68 112.964 170.068 112.584 170.288 112.114C170.507 111.644 170.537 111.078 170.292 110.648C170.046 110.219 169.499 109.971 169.013 110.137C168.536 110.3 168.235 110.783 168.014 111.242C167.78 111.73 167.587 112.236 167.437 112.754C167.369 112.988 167.306 113.169 167.293 113.46C167.284 113.835 167.507 114.081 167.868 113.951C168.342 113.747 168.819 113.542 169.249 113.253Z" fill="white"/>
<path d="M155.603 108.315C155.777 107.826 155.862 107.289 155.758 106.782C155.654 106.275 155.34 105.801 154.888 105.603C154.434 105.404 153.847 105.532 153.557 105.955C153.271 106.371 153.316 106.938 153.413 107.438C153.516 107.969 153.664 108.491 153.851 108.995C153.936 109.223 153.994 109.406 154.156 109.648C154.373 109.955 154.699 110.019 154.912 109.699C155.169 109.252 155.429 108.804 155.603 108.315Z" fill="white"/>
<path d="M163.589 110.161C163.87 109.724 164.074 109.221 164.088 108.703C164.102 108.185 163.904 107.654 163.508 107.357C163.112 107.06 162.511 107.051 162.132 107.397C161.759 107.737 161.675 108.299 161.656 108.809C161.635 109.35 161.659 109.891 161.728 110.425C161.759 110.667 161.773 110.858 161.877 111.13C162.018 111.479 162.321 111.615 162.6 111.351C162.953 110.975 163.308 110.597 163.589 110.161Z" fill="white"/>
<path d="M145.227 149.547C144.838 149.92 144.509 150.379 144.369 150.9C144.228 151.42 144.298 152.006 144.627 152.402C144.955 152.798 145.56 152.954 146.028 152.697C146.488 152.444 146.709 151.896 146.853 151.386C147.006 150.844 147.113 150.29 147.174 149.734C147.201 149.482 147.233 149.285 147.195 148.985C147.137 148.599 146.864 148.387 146.517 148.585C146.069 148.878 145.618 149.173 145.227 149.547Z" fill="white"/>
<g opacity="0.3">
<path d="M186.338 135.044C185.903 134.525 185.287 134.194 184.674 133.905C179.473 131.46 173.516 131.239 168.05 129.463C167.687 129.346 167.305 129.205 167.074 128.902C166.629 128.318 166.957 127.485 167.295 126.833C168.24 125.011 169.186 123.189 170.132 121.367C170.579 120.506 171.039 119.571 170.904 118.611C170.743 117.46 169.779 116.606 168.836 115.928C164.78 113.012 159.86 111.312 154.869 111.103C152.916 111.022 150.775 111.237 149.365 112.59C147.977 113.922 147.654 116.048 147.907 117.955C148.133 119.652 148.656 121.649 147.456 122.871C146.43 123.917 144.161 124.38 143.869 121.918C142.635 118.104 140.89 114.458 138.693 111.105C137.887 109.874 136.98 108.645 135.699 107.92C134.142 107.038 132.239 107.021 130.468 107.28C122.735 108.41 116.056 114.793 114.575 122.466C114.456 123.083 114.372 123.742 114.613 124.322C114.918 125.053 115.669 125.49 116.404 125.787C119.143 126.888 122.22 126.73 125.138 126.281C128.056 125.833 130.956 125.111 133.908 125.138C136.86 125.166 139.972 126.068 141.881 128.32C142.11 128.59 142.323 128.886 142.415 129.227C142.8 130.66 141.051 131.633 139.713 132.274C138.547 132.833 137.462 133.556 136.498 134.416C135.879 134.968 135.269 135.681 135.323 136.509C135.357 137.03 135.654 137.496 135.988 137.897C137.384 139.569 139.285 141.797 141.208 142.819C145.606 145.159 148.987 145.459 154.49 146.064C155.173 146.139 157.487 146.242 158.154 146.077C159.569 145.724 159.647 143.016 160.01 141.605C160.372 140.192 160.628 138.624 161.72 137.659C163.048 136.486 165.172 136.699 166.677 137.634C168.182 138.568 169.232 140.063 170.314 141.466C171.396 142.868 172.628 144.271 174.292 144.879C176.89 145.828 179.749 144.596 182.136 143.199C184.252 141.961 186.45 140.329 186.936 137.926C187.138 136.931 186.99 135.822 186.338 135.044Z" fill="white"/>
</g>
<path d="M102.566 131.95C102.546 131.965 102.329 131.687 101.954 131.17C101.761 130.914 101.537 130.593 101.314 130.197C101.086 129.803 100.8 129.369 100.564 128.847C100.307 128.334 100.033 127.769 99.8009 127.136C99.5323 126.516 99.3339 125.823 99.1071 125.099C98.7109 123.636 98.4062 121.989 98.3027 120.239C98.2205 118.488 98.3488 116.817 98.5883 115.32C98.7371 114.576 98.8612 113.866 99.0624 113.221C99.2261 112.566 99.4395 111.976 99.6407 111.439C99.82 110.895 100.059 110.432 100.243 110.017C100.422 109.599 100.612 109.257 100.776 108.982C101.095 108.428 101.281 108.129 101.303 108.142C101.375 108.18 100.634 109.39 99.8859 111.528C99.7024 112.064 99.5061 112.651 99.3579 113.3C99.1716 113.939 99.061 114.642 98.9235 115.376C98.706 116.853 98.5904 118.497 98.6705 120.22C98.7733 121.942 99.0624 123.564 99.4345 125.01C99.6492 125.725 99.8335 126.412 100.086 127.027C100.302 127.657 100.559 128.22 100.798 128.733C101.769 130.779 102.634 131.905 102.566 131.95Z" fill="white"/>
<path d="M106.581 103.739C106.629 103.836 105.841 104.289 105.03 105.036C104.212 105.775 103.689 106.518 103.597 106.461C103.511 106.418 103.916 105.547 104.781 104.763C105.641 103.974 106.546 103.649 106.581 103.739Z" fill="white"/>
<path d="M243.958 89.9046C242.622 74.0568 232.209 43.6674 184.072 37.8852C140.617 32.665 124.501 51.5934 117.131 66.8615C112.724 75.9916 117.579 90.3766 125.258 96.9951C135.915 106.18 150.523 110.352 163.628 113.486C183.947 118.344 198.984 119.081 217.8 117.579C230.974 116.527 239.752 107.606 242.71 101.47C243.997 98.8008 244.206 92.8584 243.958 89.9046Z" fill="#E49D67"/>
<path opacity="0.3" d="M160.64 61.0477C160.64 61.0477 158.32 60.8244 156.642 63.0915C155.699 64.3658 156.241 65.4189 157.088 65.8972C157.917 66.3664 159.229 65.7775 159.855 64.7641C161.215 62.5636 160.64 61.0477 160.64 61.0477Z" fill="black"/>
<path opacity="0.3" d="M138.035 61.8507C138.035 61.8507 140.054 63.0151 142.521 61.6466C143.908 60.8777 143.85 59.6942 143.278 58.9082C142.718 58.1379 141.28 58.1308 140.29 58.7934C138.14 60.2335 138.035 61.8507 138.035 61.8507Z" fill="black"/>
<path opacity="0.3" d="M167.199 50.3762C167.199 50.3762 165.483 48.8029 162.776 49.6002C161.255 50.0481 161.054 51.2146 161.441 52.1047C161.82 52.9771 163.222 53.2968 164.332 52.8659C166.744 51.9297 167.199 50.3762 167.199 50.3762Z" fill="black"/>
<path opacity="0.3" d="M182.003 62.5663C182.003 62.5663 181.955 60.2383 179.509 58.8329C178.134 58.0427 177.152 58.7032 176.775 59.5976C176.406 60.4742 177.144 61.7088 178.223 62.2141C180.566 63.3111 182.003 62.5663 182.003 62.5663Z" fill="black"/>
<path opacity="0.3" d="M169.695 72.1488C169.695 72.1488 167.637 73.2381 167.48 76.0551C167.392 77.6383 168.423 78.2187 169.391 78.1535C170.34 78.0891 171.112 76.8765 171.078 75.6852C171.006 73.0977 169.695 72.1488 169.695 72.1488Z" fill="black"/>
<path opacity="0.3" d="M191.958 67.9932C191.958 67.9932 190.185 69.5027 190.642 72.2857C190.898 73.8505 192.031 74.1942 192.962 73.9207C193.875 73.6528 194.365 72.3013 194.075 71.1454C193.443 68.6367 191.958 67.9932 191.958 67.9932Z" fill="black"/>
<path opacity="0.3" d="M214.065 83.546C214.065 83.546 213.899 81.2236 211.386 79.943C209.973 79.2237 209.025 79.9324 208.695 80.8445C208.37 81.7388 209.169 82.9344 210.272 83.3844C212.668 84.3617 214.065 83.546 214.065 83.546Z" fill="black"/>
<path opacity="0.3" d="M222.866 74.0959C222.866 74.0959 223.97 72.0456 222.534 69.6176C221.726 68.2534 220.546 68.3441 219.778 68.9373C219.026 69.5184 219.059 70.9557 219.75 71.9273C221.249 74.0356 222.866 74.0959 222.866 74.0959Z" fill="black"/>
<path opacity="0.3" d="M206.184 58.961C206.184 58.961 207.262 61.0254 210.077 61.1976C211.66 61.2947 212.246 60.2671 212.186 59.2983C212.127 58.3494 210.918 57.5705 209.727 57.5975C207.14 57.6556 206.184 58.961 206.184 58.961Z" fill="black"/>
<path opacity="0.3" d="M181.638 49.4155C181.638 49.4155 182.716 51.4799 185.532 51.6521C187.115 51.7492 187.701 50.7216 187.641 49.7528C187.582 48.8039 186.373 48.025 185.182 48.0519C182.595 48.1101 181.638 49.4155 181.638 49.4155Z" fill="black"/>
<path d="M160.908 59.5043C160.908 59.5043 158.587 59.2811 156.909 61.5482C155.966 62.8224 156.509 63.8755 157.355 64.3539C158.184 64.8231 159.496 64.2341 160.122 63.2207C161.482 61.0195 160.908 59.5043 160.908 59.5043Z" fill="#FFF1E7"/>
<path d="M138.303 60.3085C138.303 60.3085 140.322 61.4729 142.789 60.1044C144.175 59.3355 144.117 58.1519 143.546 57.366C142.986 56.5957 141.548 56.5886 140.558 57.2512C138.408 58.6913 138.303 60.3085 138.303 60.3085Z" fill="#FFF1E7"/>
<path d="M167.467 48.8327C167.467 48.8327 165.75 47.2594 163.044 48.0566C161.523 48.5045 161.322 49.671 161.709 50.5612C162.088 51.4336 163.49 51.7532 164.6 51.3223C167.012 50.3854 167.467 48.8327 167.467 48.8327Z" fill="#FFF1E7"/>
<path d="M182.271 61.025C182.271 61.025 182.222 58.6969 179.776 57.2916C178.401 56.5021 177.419 57.1619 177.043 58.0563C176.674 58.9329 177.411 60.1675 178.491 60.6728C180.834 61.7691 182.271 61.025 182.271 61.025Z" fill="#FFF1E7"/>
<path d="M169.963 70.604C169.963 70.604 167.905 71.6933 167.748 74.5103C167.66 76.0935 168.691 76.6739 169.659 76.6087C170.608 76.5443 171.38 75.331 171.346 74.1397C171.273 71.5536 169.963 70.604 169.963 70.604Z" fill="#FFF1E7"/>
<path d="M192.226 66.4498C192.226 66.4498 190.453 67.9593 190.909 70.7424C191.166 72.3072 192.298 72.6509 193.229 72.3773C194.142 72.1094 194.633 70.758 194.342 69.6021C193.711 67.0926 192.226 66.4498 192.226 66.4498Z" fill="#FFF1E7"/>
<path d="M214.333 82.0024C214.333 82.0024 214.167 79.68 211.653 78.3994C210.241 77.6801 209.293 78.3888 208.962 79.3009C208.638 80.1945 209.437 81.3908 210.54 81.8408C212.935 82.8181 214.333 82.0024 214.333 82.0024Z" fill="#FFF1E7"/>
<path d="M223.134 72.5515C223.134 72.5515 224.238 70.5012 222.801 68.0739C221.994 66.7097 220.814 66.8004 220.046 67.3936C219.293 67.9747 219.326 69.412 220.017 70.3836C221.516 72.4919 223.134 72.5515 223.134 72.5515Z" fill="#FFF1E7"/>
<path d="M206.451 57.4162C206.451 57.4162 207.529 59.4806 210.345 59.6528C211.927 59.7499 212.514 58.7223 212.454 57.7535C212.395 56.8046 211.186 56.0257 209.995 56.0527C207.408 56.1108 206.451 57.4162 206.451 57.4162Z" fill="#FFF1E7"/>
<path d="M181.906 47.8718C181.906 47.8718 182.983 49.9362 185.799 50.1084C187.382 50.2055 187.968 49.1779 187.908 48.2091C187.849 47.2602 186.64 46.4813 185.449 46.5082C182.863 46.5664 181.906 47.8718 181.906 47.8718Z" fill="#FFF1E7"/>
<path d="M202.933 118.598C202.933 118.605 202.841 118.608 202.661 118.607C202.463 118.604 202.2 118.6 201.864 118.595C201.164 118.577 200.13 118.561 198.801 118.496C196.142 118.386 192.294 118.165 187.56 117.679C182.824 117.201 177.201 116.45 171.007 115.33C167.912 114.764 164.673 114.112 161.33 113.37C157.992 112.619 154.525 111.844 151.051 110.757C147.575 109.688 144.244 108.447 141.08 107.13C139.501 106.469 137.951 105.799 136.484 105.032C135.017 104.271 133.623 103.448 132.3 102.587C129.654 100.867 127.304 98.9888 125.244 97.0853C123.179 95.1938 121.401 93.2321 120.148 91.1904C117.608 87.1182 116.618 83.2998 116.088 80.7074C115.57 78.0916 115.519 76.6133 115.519 76.6133C115.525 76.6126 115.542 76.7033 115.57 76.8805C115.598 77.0761 115.635 77.3369 115.683 77.6685C115.787 78.3602 115.946 79.38 116.228 80.6776C116.799 83.2516 117.825 87.0367 120.367 91.0493C121.623 93.0613 123.386 94.9833 125.451 96.8592C127.507 98.7408 129.851 100.599 132.485 102.301C133.801 103.152 135.188 103.965 136.646 104.717C138.1 105.475 139.64 106.136 141.218 106.795C144.375 108.104 147.696 109.338 151.159 110.404C154.616 111.485 158.072 112.26 161.408 113.016C164.745 113.762 167.978 114.421 171.067 114.995C177.249 116.131 182.859 116.908 187.585 117.419C192.311 117.937 196.152 118.198 198.807 118.352C200.118 118.424 201.145 118.481 201.865 118.52C202.2 118.541 202.463 118.557 202.66 118.569C202.842 118.582 202.934 118.592 202.933 118.598Z" fill="#263238"/>
<path d="M221.591 108.35C221.597 108.375 221.218 108.485 220.526 108.665C219.836 108.849 218.827 109.074 217.572 109.312C215.064 109.793 211.552 110.254 207.65 110.345C203.747 110.43 200.217 110.128 197.689 109.762C196.425 109.58 195.407 109.402 194.709 109.249C194.011 109.101 193.627 109.007 193.632 108.982C193.637 108.957 194.03 109.003 194.734 109.107C195.438 109.216 196.459 109.355 197.723 109.503C200.249 109.802 203.76 110.061 207.642 109.976C211.522 109.885 215.017 109.468 217.527 109.056C218.783 108.851 219.797 108.666 220.495 108.525C221.195 108.388 221.584 108.325 221.591 108.35Z" fill="#263238"/>
<g opacity="0.3">
<path d="M151.466 68.9957C152.436 69.1275 153.213 70.1027 153.125 71.0785C153.037 72.0544 152.098 72.8743 151.12 72.8304C150.14 72.7865 149.279 71.8857 149.279 70.9056C149.278 69.9255 150.139 69.024 151.118 68.9794" fill="#931A00"/>
</g>
<g opacity="0.3">
<path d="M154.555 50.1699C155.526 50.3024 156.303 51.2768 156.215 52.2527C156.127 53.2286 155.188 54.0485 154.21 54.0046C153.23 53.9607 152.369 53.0599 152.368 52.0798C152.368 51.0997 153.229 50.1982 154.208 50.1536" fill="#931A00"/>
</g>
<g opacity="0.3">
<path d="M225.249 79.1762C226.848 79.3938 228.125 80.9983 227.981 82.6049C227.836 84.2115 226.291 85.5608 224.679 85.4886C223.067 85.4163 221.649 83.9337 221.649 82.3207C221.648 80.7077 223.065 79.2237 224.676 79.15" fill="#931A00"/>
</g>
<g opacity="0.3">
<path d="M196.623 55.0193C197.423 55.1278 198.062 55.93 197.989 56.7337C197.917 57.5373 197.144 58.212 196.338 58.1759C195.533 58.1397 194.823 57.3984 194.823 56.5919C194.823 55.7854 195.531 55.0434 196.337 55.0066" fill="#D27A4B"/>
</g>
<g opacity="0.3">
<path d="M155.464 75.2983C155.075 75.4145 154.819 75.8908 154.983 76.2628C155.146 76.6349 155.728 76.7469 155.987 76.4336C156.246 76.1197 155.868 75.2501 155.464 75.2983Z" fill="#931A00"/>
</g>
<path d="M144.853 44.1738C144.857 44.1858 144.749 44.2383 144.539 44.3276C144.289 44.4289 143.984 44.5515 143.617 44.7004C143.214 44.8534 142.723 45.0469 142.167 45.3049C141.609 45.5579 140.962 45.8165 140.28 46.1758C139.588 46.5153 138.833 46.8902 138.051 47.3473C137.251 47.7718 136.44 48.2991 135.576 48.8363C133.879 49.9574 132.078 51.2898 130.314 52.839C128.564 54.4052 127.025 56.0338 125.708 57.5844C125.071 58.3774 124.451 59.1201 123.933 59.8635C123.386 60.585 122.923 61.2901 122.503 61.9357C122.065 62.57 121.73 63.1816 121.412 63.7046C121.09 64.2255 120.839 64.689 120.638 65.071C120.447 65.4175 120.288 65.7053 120.158 65.9413C120.045 66.139 119.979 66.2396 119.967 66.2347C119.956 66.229 119.999 66.117 120.091 65.9094C120.205 65.6642 120.343 65.3658 120.51 65.0058C120.692 64.6125 120.925 64.1369 121.232 63.6033C121.534 63.0675 121.855 62.4432 122.282 61.7961C122.69 61.137 123.144 60.4198 123.684 59.6849C124.195 58.9288 124.811 58.1733 125.446 57.3682C126.758 55.7928 128.303 54.143 130.068 52.564C131.847 51.0013 133.67 49.6654 135.391 48.5514C136.267 48.0177 137.09 47.4969 137.902 47.0808C138.697 46.6322 139.463 46.268 140.167 45.942C140.86 45.5961 141.519 45.3524 142.086 45.1164C142.653 44.8754 143.153 44.7004 143.565 44.5678C143.943 44.4452 144.256 44.3432 144.513 44.2595C144.733 44.1908 144.85 44.1617 144.853 44.1738Z" fill="white"/>
<path d="M152.336 42.2538C152.362 42.3523 151.517 42.6634 150.449 42.9476C149.38 43.2325 148.494 43.3834 148.468 43.2849C148.441 43.1864 149.286 42.876 150.354 42.5911C151.422 42.3062 152.309 42.1553 152.336 42.2538Z" fill="white"/>
<path opacity="0.3" d="M171.009 115.329C167.913 114.764 164.674 114.111 161.331 113.369C157.993 112.619 154.527 111.843 151.053 110.757C147.576 109.688 144.246 108.447 141.081 107.13C139.502 106.469 137.952 105.799 136.485 105.031C135.018 104.27 133.624 103.448 132.301 102.586C129.655 100.866 127.305 98.9884 125.245 97.0849C124.567 96.4634 123.924 95.834 123.316 95.1976C122.049 95.4478 120.637 95.7646 119.132 96.1721C119.689 101.664 123.017 106.613 127.28 110.13C131.6 113.694 136.824 115.969 142.068 117.932C149.469 120.7 157.069 122.937 164.788 124.622C175.346 126.926 187.082 127.992 196.358 122.516C195.016 121.032 193.493 119.543 191.831 118.068C190.501 117.962 189.082 117.835 187.559 117.679C182.825 117.2 177.203 116.448 171.009 115.329Z" fill="black"/>
<path opacity="0.3" d="M132.111 211.119L132.328 212.44C145.564 219.339 161.022 221.262 175.585 217.989C190.147 214.716 203.46 206.15 212.472 194.252C212.132 194.035 211.79 193.819 211.447 193.602C201.576 199.338 185.378 205.974 172.855 208.846C161.508 211.449 146.148 212.943 132.111 211.119Z" fill="black"/>
<path opacity="0.3" d="M229.506 277.728C226.321 278.231 223.563 275.259 220.346 275.024C218.945 274.921 217.553 275.351 216.149 275.314C214.744 275.278 213.16 274.534 212.923 273.15C212.566 274.861 210.522 275.768 208.795 275.499C207.068 275.229 205.608 274.119 204.229 273.045C207.126 277.307 206.136 283.74 202.091 286.933C198.047 290.126 191.559 289.597 188.087 285.79C187.613 287.494 185.623 288.4 183.861 288.246C182.099 288.091 180.52 287.142 179.013 286.217C178.082 288.508 176.774 291.118 174.338 291.544C173.576 291.677 172.759 291.573 172.054 291.892C170.864 292.429 170.484 293.886 169.988 295.093C168.872 297.813 166.368 300.005 163.458 300.419C160.548 300.833 157.375 299.261 156.223 296.557C155.888 298.579 153.997 300.229 151.948 300.287C149.899 300.345 147.917 298.806 147.467 296.807C145.435 298.465 142.341 297.24 140.352 295.531C138.919 294.299 137.699 292.831 136.725 291.213C136.783 294.347 137.754 297.47 139.563 300.034C142.307 303.923 146.904 306.44 151.659 306.657C154.858 311.621 162.006 313.548 167.266 310.863C169.45 309.748 171.335 307.953 173.73 307.431C176.118 306.911 178.919 307.668 180.831 306.146C182.032 305.19 182.49 303.605 183.246 302.269C184.307 300.392 186.068 298.92 188.105 298.207C192.811 296.561 198.734 298.809 202.6 295.66C205.56 297.387 209.513 297.236 212.334 295.29C215.155 293.344 216.698 289.702 216.134 286.321C219.539 287.518 223.687 286.016 225.537 282.917C228.932 283.296 232.443 283.666 235.702 282.641C238.96 281.616 241.916 278.804 241.977 275.389C242.023 272.833 240.498 270.574 238.561 268.823C237.472 270.862 235.845 272.716 234.269 274.434C232.938 275.884 231.452 277.421 229.506 277.728Z" fill="black"/>
</svg>
